<?xml version="1.0" encoding="iso-8859-1"?>
<!-- Uploaded to: SVG Repo, www.svgrepo.com, Generator: SVG Repo Mixer Tools -->
<svg height="800px" width="800px" version="1.1" id="Layer_1" xmlns="http://www.w3.org/2000/svg" xmlns:xlink="http://www.w3.org/1999/xlink" 
	 viewBox="0 0 512 512" xml:space="preserve">
<path style="fill:#BBD7D8;" d="M428.892,333.616l-0.305,1.028l-25.964,77.689l-12.734,38.089l-11.008,32.947
	c-5.218,17.94-17.686,28.63-33.429,28.63H169.125c-15.743,0-28.211-10.69-33.429-28.63l-11.008-32.947l-12.734-38.089
	l-26.129-78.197l-0.14-0.521c-2.425-8.862-0.571-18.181,5.066-25.558c6.475-8.468,17.407-13.725,28.541-13.725h275.993
	c11.135,0,22.066,5.256,28.541,13.725C429.464,315.435,431.305,324.754,428.892,333.616z"/>
<path style="fill:#B1CCCD;" d="M428.892,333.616l-0.305,1.028l-25.964,77.689l-12.734,38.089l-11.008,32.947
	c-5.218,17.94-17.686,28.63-33.429,28.63h-88.163V294.334h137.996c11.135,0,22.066,5.256,28.541,13.725
	C429.464,315.435,431.305,324.754,428.892,333.616z"/>
<polygon style="fill:#477777;" points="402.624,412.334 389.889,450.423 124.688,450.423 111.954,412.334 "/>
<polygon style="fill:#437171;" points="402.624,412.334 389.889,450.423 257.289,450.423 257.289,412.334 "/>
<path style="fill:#F4B74A;" d="M471.171,296.873c0,18.905-15.375,34.28-34.28,34.28H75.109c-18.905,0-34.28-15.375-34.28-34.28
	c0-50.1,23.272-98.054,65.513-135.051c39.866-34.902,91.655-54.924,142.072-54.924h32.782c2.26,0,4.342,0.229,16.112,2.539
	c57.616,11.338,109.455,42.901,145.944,88.874l0.813,1.016l0.66,1.117C462.03,229.621,471.171,262.961,471.171,296.873z"/>
<path style="fill:#EFA125;" d="M471.171,296.873c0,18.905-15.375,34.28-34.28,34.28H256.006V106.898h25.19
	c2.26,0,4.342,0.229,16.112,2.539c57.616,11.338,109.455,42.901,145.944,88.874l0.813,1.016l0.66,1.117
	C462.03,229.621,471.171,262.961,471.171,296.873z"/>
<path style="fill:#FFDCE1;" d="M382.614,102.962c-0.279,1.333-0.698,2.603-1.232,3.796c-0.114,0.279-0.254,0.559-0.394,0.825
	c-0.038,0.089-0.089,0.178-0.14,0.267c-3.25,6.234-9.763,10.221-16.848,10.221c-1.308,0-2.628-0.14-3.949-0.419h-0.013
	c-10.297-2.184-16.873-12.29-14.69-22.574c6.297-29.722,6.894-40.082-22.307-60.396c-8.57-5.967-10.741-17.686-4.888-26.32
	c0.038-0.063,0.089-0.127,0.127-0.19c0.546-0.787,1.143-1.524,1.79-2.196c6.348-6.754,16.861-8.024,24.707-2.565
	c21.673,15.071,33.696,29.354,38.978,46.291C388.772,65.838,387.045,82.051,382.614,102.962z"/>
<g>
	<path style="fill:#F4CED2;" d="M369.664,102.302c0.229,0.051,0.736,0.216,1.435,0.47c0.165,0.152,0.343,0.292,0.508,0.432
		L369.664,102.302z"/>
	<path style="fill:#F4CED2;" d="M380.849,107.85c-3.53-0.889-6.666-2.514-9.243-4.647l9.383,4.38l1.295,0.597
		C381.802,108.091,381.319,107.977,380.849,107.85z"/>
	<path style="fill:#F4CED2;" d="M381.383,106.758c-3.618-1.384-7.986-3.161-10.284-3.987c-5.586-4.901-8.354-12.252-6.627-19.705
		c7.63-33.061-4.279-50.468-39.689-73.067c-1.816-1.168-3.403-2.527-4.71-4.025c6.348-6.754,16.861-8.024,24.707-2.565
		c21.673,15.071,33.696,29.354,38.978,46.291c5.015,16.137,3.288,32.35-1.143,53.261
		C382.335,104.295,381.916,105.565,381.383,106.758z"/>
</g>
<path style="fill:#F5888E;" d="M451.619,173.097c0,49.071-39.27,89.141-88.036,90.436c-0.813,0.013-1.612,0.025-2.425,0.025
	c-49.884,0-90.461-40.577-90.461-90.461s40.577-90.461,90.461-90.461c0.813,0,1.612,0.013,2.425,0.025
	C412.349,83.956,451.619,124.025,451.619,173.097z"/>
<path style="fill:#F76976;" d="M451.619,173.097c0,49.071-39.27,89.141-88.036,90.436V82.661
	C412.349,83.956,451.619,124.025,451.619,173.097z"/>
</svg>